<svg width="16" height="18" viewBox="0 0 16 18" fill="none" xmlns="http://www.w3.org/2000/svg">
<path d="M5 1.98876C4.73478 1.98876 4.48043 2.0934 4.29289 2.27965C4.10536 2.46591 4 2.71852 4 2.98193C4 3.24533 4.10536 3.49794 4.29289 3.6842C4.48043 3.87045 4.73478 3.97509 5 3.97509C5.26522 3.97509 5.51957 3.87045 5.70711 3.6842C5.89464 3.49794 6 3.24533 6 2.98193C6 2.71852 5.89464 2.46591 5.70711 2.27965C5.51957 2.0934 5.26522 1.98876 5 1.98876ZM2.17 1.98876C2.3766 1.40723 2.75974 0.903664 3.2666 0.547472C3.77346 0.191279 4.37909 0 5 0C5.62091 0 6.22654 0.191279 6.7334 0.547472C7.24026 0.903664 7.6234 1.40723 7.83 1.98876H15C15.2652 1.98876 15.5196 2.0934 15.7071 2.27965C15.8946 2.46591 16 2.71852 16 2.98193C16 3.24533 15.8946 3.49794 15.7071 3.6842C15.5196 3.87045 15.2652 3.97509 15 3.97509H7.83C7.6234 4.55662 7.24026 5.06019 6.7334 5.41638C6.22654 5.77257 5.62091 5.96385 5 5.96385C4.37909 5.96385 3.77346 5.77257 3.2666 5.41638C2.75974 5.06019 2.3766 4.55662 2.17 3.97509H1C0.734784 3.97509 0.48043 3.87045 0.292893 3.6842C0.105357 3.49794 0 3.24533 0 2.98193C0 2.71852 0.105357 2.46591 0.292893 2.27965C0.48043 2.0934 0.734784 1.98876 1 1.98876H2.17ZM11 7.94775C10.7348 7.94775 10.4804 8.05238 10.2929 8.23864C10.1054 8.42489 10 8.67751 10 8.94091C10 9.20431 10.1054 9.45693 10.2929 9.64318C10.4804 9.82944 10.7348 9.93407 11 9.93407C11.2652 9.93407 11.5196 9.82944 11.7071 9.64318C11.8946 9.45693 12 9.20431 12 8.94091C12 8.67751 11.8946 8.42489 11.7071 8.23864C11.5196 8.05238 11.2652 7.94775 11 7.94775ZM8.17 7.94775C8.3766 7.36622 8.75974 6.86265 9.2666 6.50646C9.77346 6.15026 10.3791 5.95898 11 5.95898C11.6209 5.95898 12.2265 6.15026 12.7334 6.50646C13.2403 6.86265 13.6234 7.36622 13.83 7.94775H15C15.2652 7.94775 15.5196 8.05238 15.7071 8.23864C15.8946 8.42489 16 8.67751 16 8.94091C16 9.20431 15.8946 9.45693 15.7071 9.64318C15.5196 9.82944 15.2652 9.93407 15 9.93407H13.83C13.6234 10.5156 13.2403 11.0192 12.7334 11.3754C12.2265 11.7316 11.6209 11.9228 11 11.9228C10.3791 11.9228 9.77346 11.7316 9.2666 11.3754C8.75974 11.0192 8.3766 10.5156 8.17 9.93407H1C0.734784 9.93407 0.48043 9.82944 0.292893 9.64318C0.105357 9.45693 0 9.20431 0 8.94091C0 8.67751 0.105357 8.42489 0.292893 8.23864C0.48043 8.05238 0.734784 7.94775 1 7.94775H8.17ZM5 13.9067C4.73478 13.9067 4.48043 14.0114 4.29289 14.1976C4.10536 14.3839 4 14.6365 4 14.8999C4 15.1633 4.10536 15.4159 4.29289 15.6022C4.48043 15.7884 4.73478 15.8931 5 15.8931C5.26522 15.8931 5.51957 15.7884 5.70711 15.6022C5.89464 15.4159 6 15.1633 6 14.8999C6 14.6365 5.89464 14.3839 5.70711 14.1976C5.51957 14.0114 5.26522 13.9067 5 13.9067ZM2.17 13.9067C2.3766 13.3252 2.75974 12.8216 3.2666 12.4654C3.77346 12.1092 4.37909 11.918 5 11.918C5.62091 11.918 6.22654 12.1092 6.7334 12.4654C7.24026 12.8216 7.6234 13.3252 7.83 13.9067H15C15.2652 13.9067 15.5196 14.0114 15.7071 14.1976C15.8946 14.3839 16 14.6365 16 14.8999C16 15.1633 15.8946 15.4159 15.7071 15.6022C15.5196 15.7884 15.2652 15.8931 15 15.8931H7.83C7.6234 16.4746 7.24026 16.9782 6.7334 17.3343C6.22654 17.6905 5.62091 17.8818 5 17.8818C4.37909 17.8818 3.77346 17.6905 3.2666 17.3343C2.75974 16.9782 2.3766 16.4746 2.17 15.8931H1C0.734784 15.8931 0.48043 15.7884 0.292893 15.6022C0.105357 15.4159 0 15.1633 0 14.8999C0 14.6365 0.105357 14.3839 0.292893 14.1976C0.48043 14.0114 0.734784 13.9067 1 13.9067H2.17Z" fill="#4C3673"/>
</svg>
