<svg width="21" height="21" viewBox="0 0 21 21" fill="none" xmlns="http://www.w3.org/2000/svg">
<path d="M0 20.1875V15.421L14.8042 0.644879C15.0285 0.439265 15.2763 0.280382 15.5477 0.168229C15.8191 0.0560765 16.104 0 16.4023 0C16.7007 0 16.9904 0.0560765 17.2715 0.168229C17.5527 0.280382 17.7956 0.448611 18.0005 0.672917L19.5426 2.24306C19.7669 2.44867 19.9307 2.69167 20.0338 2.97205C20.137 3.25243 20.1882 3.53281 20.1875 3.81319C20.1875 4.11227 20.1363 4.39751 20.0338 4.66892C19.9314 4.94033 19.7677 5.18781 19.5426 5.41137L4.76649 20.1875H0ZM16.3743 5.38333L17.9444 3.81319L16.3743 2.24306L14.8042 3.81319L16.3743 5.38333Z" fill="white"/>
</svg>
